<svg width="50" height="50" viewBox="0 0 50 50" fill="none" xmlns="http://www.w3.org/2000/svg">
<path d="M35.9375 4.16663C36.6898 4.16663 37.4348 4.31482 38.1299 4.60273C38.825 4.89065 39.4566 5.31266 39.9886 5.84466C40.5206 6.37666 40.9426 7.00824 41.2305 7.70334C41.5185 8.39843 41.6666 9.14343 41.6666 9.89579V40.1041C41.6666 40.8565 41.5185 41.6015 41.2305 42.2966C40.9426 42.9917 40.5206 43.6233 39.9886 44.1553C39.4566 44.6873 38.825 45.1093 38.1299 45.3972C37.4348 45.6851 36.6898 45.8333 35.9375 45.8333H14.0625C13.3099 45.8333 12.5648 45.685 11.8695 45.397C11.1743 45.1089 10.5426 44.6867 10.0106 44.1545C9.47858 43.6223 9.05662 42.9905 8.76882 42.2951C8.48103 41.5998 8.33304 40.8546 8.33331 40.102V9.89579C8.33331 8.37632 8.93692 6.91909 10.0113 5.84466C11.0858 4.77023 12.543 4.16663 14.0625 4.16663H14.6687V21.1812C14.6687 22.7395 16.3146 23.2937 17.4166 22.7229L17.6041 22.6083L21.9646 20.1145L26.4229 22.677C27.3521 23.3187 29.05 22.8854 29.2354 21.4479L29.2521 21.1812V4.16663H35.9396H35.9375ZM26.1271 4.16663V18.9083L22.75 16.9666C22.4882 16.8521 22.2044 16.7968 21.9188 16.8048C21.6332 16.8127 21.3529 16.8836 21.0979 17.0125L20.875 17.1437L17.7937 18.9062V4.16663H26.1271Z" fill="#90E0EF"/>
</svg>
