<svg width="50" height="50" viewBox="0 0 50 50" fill="none" xmlns="http://www.w3.org/2000/svg">
<path d="M3.125 14.8438C3.125 11.825 5.575 9.375 8.59375 9.375H41.4062C44.425 9.375 46.875 11.825 46.875 14.8438V35.1562C46.875 36.6067 46.2988 37.9977 45.2732 39.0232C44.2477 40.0488 42.8567 40.625 41.4062 40.625H8.59375C7.14335 40.625 5.75235 40.0488 4.72676 39.0232C3.70117 37.9977 3.125 36.6067 3.125 35.1562V14.8438ZM16.4406 24.1063C16.9975 24.1063 17.5489 23.9966 18.0634 23.7835C18.5779 23.5703 19.0454 23.258 19.4392 22.8642C19.833 22.4704 20.1453 22.0029 20.3585 21.4884C20.5716 20.9739 20.6812 20.4225 20.6812 19.8656C20.6812 19.3087 20.5716 18.7573 20.3585 18.2428C20.1453 17.7283 19.833 17.2608 19.4392 16.8671C19.0454 16.4733 18.5779 16.1609 18.0634 15.9478C17.5489 15.7347 16.9975 15.625 16.4406 15.625C15.3159 15.625 14.2373 16.0718 13.442 16.8671C12.6468 17.6623 12.2 18.7409 12.2 19.8656C12.2 20.9903 12.6468 22.0689 13.442 22.8642C14.2373 23.6595 15.3159 24.1063 16.4406 24.1063ZM12.0563 26.225C11.3451 26.225 10.6632 26.5075 10.1603 27.0103C9.65749 27.5132 9.375 28.1951 9.375 28.9062C9.3751 30.0701 9.76421 31.2004 10.4805 32.1177C11.1967 33.035 12.1991 33.6865 13.3281 33.9688L13.4937 34.0125C15.4312 34.4969 17.4531 34.4969 19.3875 34.0125L19.5562 33.9719C20.6853 33.6896 21.6876 33.0381 22.4039 32.1208C23.1202 31.2035 23.5093 30.0732 23.5094 28.9094C23.5098 28.557 23.4407 28.208 23.3062 27.8823C23.1716 27.5567 22.9742 27.2607 22.7252 27.0114C22.4761 26.7621 22.1804 26.5643 21.8549 26.4294C21.5294 26.2945 21.1805 26.225 20.8281 26.225H12.0563ZM29.6875 18.75C29.2731 18.75 28.8757 18.9146 28.5826 19.2076C28.2896 19.5007 28.125 19.8981 28.125 20.3125C28.125 20.7269 28.2896 21.1243 28.5826 21.4174C28.8757 21.7104 29.2731 21.875 29.6875 21.875H39.0625C39.4769 21.875 39.8743 21.7104 40.1674 21.4174C40.4604 21.1243 40.625 20.7269 40.625 20.3125C40.625 19.8981 40.4604 19.5007 40.1674 19.2076C39.8743 18.9146 39.4769 18.75 39.0625 18.75H29.6875ZM29.6875 28.125C29.2731 28.125 28.8757 28.2896 28.5826 28.5826C28.2896 28.8757 28.125 29.2731 28.125 29.6875C28.125 30.1019 28.2896 30.4993 28.5826 30.7924C28.8757 31.0854 29.2731 31.25 29.6875 31.25H39.0625C39.4769 31.25 39.8743 31.0854 40.1674 30.7924C40.4604 30.4993 40.625 30.1019 40.625 29.6875C40.625 29.2731 40.4604 28.8757 40.1674 28.5826C39.8743 28.2896 39.4769 28.125 39.0625 28.125H29.6875Z" fill="#90E0EF"/>
</svg>
