<svg width="45" height="44" viewBox="0 0 45 44" fill="none" xmlns="http://www.w3.org/2000/svg">
<path d="M38.625 22.0001C37.5125 22.0058 36.4222 22.3113 35.4687 22.8844L31.0015 18.4173L34.5843 14.8344C35.1702 14.2484 35.4993 13.4537 35.4993 12.6251C35.4993 11.7964 35.1702 11.0017 34.5843 10.4157L25.2093 1.04069C24.6233 0.454843 23.8286 0.125732 23 0.125732C22.1713 0.125732 21.3766 0.454843 20.7906 1.04069L11.4156 10.4157C10.8298 11.0017 10.5006 11.7964 10.5006 12.6251C10.5006 13.4537 10.8298 14.2484 11.4156 14.8344L14.9984 18.4173L10.5312 22.8844C9.2076 22.0991 7.6428 21.824 6.13067 22.1107C4.61855 22.3975 3.26313 23.2264 2.31895 24.4419C1.37477 25.6573 0.906781 27.1756 1.00287 28.7117C1.09896 30.2478 1.75252 31.6959 2.84081 32.7842C3.9291 33.8725 5.37726 34.5261 6.91333 34.6222C8.4494 34.7183 9.96772 34.2503 11.1832 33.3061C12.3986 32.3619 13.2275 31.0065 13.5143 29.4944C13.8011 27.9822 13.5259 26.4174 12.7406 25.0938L17.2078 20.6266L20.7906 24.2094C20.9841 24.3985 21.2016 24.5614 21.4375 24.6938V31.3751H16.75V43.8751H29.25V31.3751H24.5625V24.6923C24.7983 24.5603 25.0158 24.398 25.2093 24.2094L28.7922 20.6266L33.2593 25.0938C32.5674 26.2808 32.287 27.6632 32.4619 29.0261C32.6367 30.3889 33.257 31.6557 34.2262 32.6296C35.1955 33.6035 36.4593 34.2298 37.8213 34.4111C39.1833 34.5925 40.567 34.3187 41.7573 33.6324C42.9476 32.9461 43.8778 31.8857 44.4032 30.6161C44.9285 29.3465 45.0197 27.9389 44.6624 26.6122C44.3052 25.2855 43.5195 24.114 42.4277 23.2799C41.3358 22.4458 39.999 21.9959 38.625 22.0001ZM10.5 28.2501C10.5 28.8681 10.3167 29.4723 9.97331 29.9862C9.62993 30.5001 9.14188 30.9007 8.57086 31.1372C7.99984 31.3737 7.3715 31.4356 6.76531 31.315C6.15912 31.1944 5.6023 30.8968 5.16526 30.4598C4.72822 30.0227 4.4306 29.4659 4.31002 28.8597C4.18944 28.2535 4.25132 27.6252 4.48785 27.0542C4.72437 26.4832 5.12491 25.9951 5.63881 25.6517C6.15272 25.3083 6.75691 25.1251 7.37497 25.1251C8.20352 25.1259 8.99789 25.4554 9.58377 26.0413C10.1696 26.6271 10.4991 27.4215 10.5 28.2501ZM26.125 34.5001V40.7501H19.875V34.5001H26.125ZM23 22.0001L13.625 12.6251L23 3.25007L32.375 12.6251L23 22.0001ZM38.625 31.3751C38.0069 31.3751 37.4027 31.1918 36.8888 30.8484C36.3749 30.505 35.9744 30.017 35.7378 29.446C35.5013 28.8749 35.4394 28.2466 35.56 27.6404C35.6806 27.0342 35.9782 26.4774 36.4153 26.0404C36.8523 25.6033 37.4091 25.3057 38.0153 25.1851C38.6215 25.0645 39.2498 25.1264 39.8209 25.3629C40.3919 25.5995 40.8799 26 41.2233 26.5139C41.5667 27.0278 41.75 27.632 41.75 28.2501C41.7491 29.0786 41.4196 29.873 40.8338 30.4589C40.2479 31.0447 39.4535 31.3742 38.625 31.3751Z" fill="#90E0EF"/>
</svg>
